<svg width="72" height="92" viewBox="0 0 72 92" fill="none" xmlns="http://www.w3.org/2000/svg">
<path d="M71.7 37.6L67.7 39.1L54.1 19.1H43.1V83.7L53.8 87L51.3 92H18.9V87.9L28.3 80.5V19.1H17.6L4 39.1L2.38419e-07 37.6V11.6L6.1 13.4H65.6L71.7 11.6V37.6Z" fill="black"/>
<rect width="6" height="6" transform="matrix(-0.5 0.866025 -0.5 -0.866025 60.482 5.75)" fill="black"/>
<rect width="6" height="6" transform="matrix(0.999848 -0.0174524 -0.48481 0.87462 62.0009 5.75227)" fill="black"/>
<rect width="6" height="6" transform="matrix(-0.5 -0.866026 1 -4.48349e-08 50 11)" fill="black"/>
<rect width="6" height="6" transform="matrix(0.866025 0.5 -0.866025 0.5 20.75 68.518)" fill="black"/>
<rect width="6" height="6" transform="matrix(-0.0174524 -0.999848 0.87462 0.48481 20.7523 66.9991)" fill="black"/>
<rect width="6" height="6" transform="matrix(-0.866026 0.5 -4.48349e-08 -1 26 79)" fill="black"/>
</svg>
