<svg width="690" height="209" viewBox="0 0 690 209" fill="none" xmlns="http://www.w3.org/2000/svg">
<mask id="path-1-outside-1_0_1" maskUnits="userSpaceOnUse" x="0" y="57" width="690" height="94" fill="black">
<rect fill="white" y="57" width="690" height="94"/>
<path d="M79.8899 87.16L75.4899 88.81L60.5299 66.81H48.4299V137.87L60.1999 141.5L57.4499 147H21.8099V142.49L32.1499 134.35V66.81H20.3799L5.41992 88.81L1.01992 87.16V58.56L7.72992 60.54H73.1799L79.8899 58.56V87.16ZM174.59 147H152.7L129.71 108.39L124.76 104.87L126.74 100.8H132.57C137.117 100.8 140.71 99.5533 143.35 97.06C145.99 94.5667 147.31 91.12 147.31 86.72C147.31 81.1467 145.77 76.5633 142.69 72.97C139.684 69.3767 135.284 67.58 129.49 67.58C125.677 67.58 122.194 68.7167 119.04 70.99V137.76L130.81 141.5L128.06 147H92.4205V142.49L102.76 134.13V69.56L91.1005 66.04L93.8505 60.54H108.81C115.337 60.54 121.754 60.32 128.06 59.88C132.754 59.5867 136.2 59.44 138.4 59.44C143.607 59.44 148.227 60.43 152.26 62.41C156.294 64.39 159.41 67.1033 161.61 70.55C163.81 73.9233 164.91 77.6633 164.91 81.77C164.91 87.1233 162.6 92.0367 157.98 96.51C153.36 100.983 147.787 104.283 141.26 106.41L149.18 108.94L165.13 135.67L177.34 141.5L174.59 147ZM250.625 147H183.195V142.49L193.535 134.35V69.78L181.875 66.04L184.625 60.54H249.525L256.235 58.56V84.96L251.835 86.61L238.525 66.81H209.815V99.7H225.325L233.465 86.28H237.975V119.17L232.475 121.92L225.435 105.97H209.815V140.62H237.975L252.935 118.73L257.335 120.38V148.98L250.625 147ZM350.327 73.41V147H342.847L290.927 83.75V135.67L304.127 141.5L301.377 147H273.107V142.49L283.447 134.13V72.42L271.787 66.04L274.537 60.54H292.247L342.847 122.03V71.65L329.757 66.04L332.507 60.54H360.777V65.05L350.327 73.41ZM416.523 59.55C424.37 59.55 431.3 61.3833 437.313 65.05C443.4 68.6433 448.093 73.6667 451.393 80.12C454.693 86.5733 456.343 93.87 456.343 102.01C456.343 110.37 453.813 118.107 448.753 125.22C443.767 132.26 437.533 137.87 430.053 142.05C422.573 146.157 415.46 148.21 408.713 148.21C405.267 148.21 401.893 148.027 398.593 147.66C392.947 147.293 388.657 147.11 385.723 147.11H370.323V142.6L380.663 134.46V69.78L369.003 66.04L371.753 60.54H385.613C392.433 60.54 399.143 60.32 405.743 59.88C410.583 59.5867 414.177 59.44 416.523 59.44V59.55ZM411.793 139.3C416.853 139.3 421.437 137.943 425.543 135.23C429.65 132.443 432.877 128.63 435.223 123.79C437.57 118.877 438.743 113.377 438.743 107.29C438.743 100.03 437.607 93.43 435.333 87.49C433.133 81.4767 429.723 76.71 425.103 73.19C420.483 69.5967 414.763 67.8 407.943 67.8C403.91 67.8 400.243 68.9367 396.943 71.21V136.77C401.123 138.383 406.073 139.19 411.793 139.19V139.3ZM505.221 147H469.581V142.49L479.921 134.13V69.67L468.261 66.04L471.011 60.54H506.651V65.05L496.201 73.41V137.76L507.971 141.5L505.221 147ZM591.82 84.96L587.42 86.61L573.89 66.81H545.4V99.7H560.91L569.05 86.28H573.56V117.19L568.06 119.94L561.13 105.97H545.4V137.1L563.22 141.5L560.47 147H518.78V142.49L529.12 134.35V69.78L517.46 66.04L520.21 60.54H585.11L591.82 58.56V84.96ZM651.148 137.87L663.028 141.5L660.278 147H624.858V142.49L635.198 134.35V116.75L606.488 70.77L597.908 66.04L600.218 60.54H635.308V65.05L625.848 72.31L646.858 105.97L668.528 73.3L651.478 66.04L654.228 60.54H688.548V65.05L678.868 71.43L651.148 113.56V137.87Z"/>
</mask>
<path d="M79.8899 87.16L75.4899 88.81L60.5299 66.81H48.4299V137.87L60.1999 141.5L57.4499 147H21.8099V142.49L32.1499 134.35V66.81H20.3799L5.41992 88.81L1.01992 87.16V58.56L7.72992 60.54H73.1799L79.8899 58.56V87.16ZM174.59 147H152.7L129.71 108.39L124.76 104.87L126.74 100.8H132.57C137.117 100.8 140.71 99.5533 143.35 97.06C145.99 94.5667 147.31 91.12 147.31 86.72C147.31 81.1467 145.77 76.5633 142.69 72.97C139.684 69.3767 135.284 67.58 129.49 67.58C125.677 67.58 122.194 68.7167 119.04 70.99V137.76L130.81 141.5L128.06 147H92.4205V142.49L102.76 134.13V69.56L91.1005 66.04L93.8505 60.54H108.81C115.337 60.54 121.754 60.32 128.06 59.88C132.754 59.5867 136.2 59.44 138.4 59.44C143.607 59.44 148.227 60.43 152.26 62.41C156.294 64.39 159.41 67.1033 161.61 70.55C163.81 73.9233 164.91 77.6633 164.91 81.77C164.91 87.1233 162.6 92.0367 157.98 96.51C153.36 100.983 147.787 104.283 141.26 106.41L149.18 108.94L165.13 135.67L177.34 141.5L174.59 147ZM250.625 147H183.195V142.49L193.535 134.35V69.78L181.875 66.04L184.625 60.54H249.525L256.235 58.56V84.96L251.835 86.61L238.525 66.81H209.815V99.7H225.325L233.465 86.28H237.975V119.17L232.475 121.92L225.435 105.97H209.815V140.62H237.975L252.935 118.73L257.335 120.38V148.98L250.625 147ZM350.327 73.41V147H342.847L290.927 83.75V135.67L304.127 141.5L301.377 147H273.107V142.49L283.447 134.13V72.42L271.787 66.04L274.537 60.54H292.247L342.847 122.03V71.65L329.757 66.04L332.507 60.54H360.777V65.05L350.327 73.41ZM416.523 59.55C424.37 59.55 431.3 61.3833 437.313 65.05C443.4 68.6433 448.093 73.6667 451.393 80.12C454.693 86.5733 456.343 93.87 456.343 102.01C456.343 110.37 453.813 118.107 448.753 125.22C443.767 132.26 437.533 137.87 430.053 142.05C422.573 146.157 415.46 148.21 408.713 148.21C405.267 148.21 401.893 148.027 398.593 147.66C392.947 147.293 388.657 147.11 385.723 147.11H370.323V142.6L380.663 134.46V69.78L369.003 66.04L371.753 60.54H385.613C392.433 60.54 399.143 60.32 405.743 59.88C410.583 59.5867 414.177 59.44 416.523 59.44V59.55ZM411.793 139.3C416.853 139.3 421.437 137.943 425.543 135.23C429.65 132.443 432.877 128.63 435.223 123.79C437.57 118.877 438.743 113.377 438.743 107.29C438.743 100.03 437.607 93.43 435.333 87.49C433.133 81.4767 429.723 76.71 425.103 73.19C420.483 69.5967 414.763 67.8 407.943 67.8C403.91 67.8 400.243 68.9367 396.943 71.21V136.77C401.123 138.383 406.073 139.19 411.793 139.19V139.3ZM505.221 147H469.581V142.49L479.921 134.13V69.67L468.261 66.04L471.011 60.54H506.651V65.05L496.201 73.41V137.76L507.971 141.5L505.221 147ZM591.82 84.96L587.42 86.61L573.89 66.81H545.4V99.7H560.91L569.05 86.28H573.56V117.19L568.06 119.94L561.13 105.97H545.4V137.1L563.22 141.5L560.47 147H518.78V142.49L529.12 134.35V69.78L517.46 66.04L520.21 60.54H585.11L591.82 58.56V84.96ZM651.148 137.87L663.028 141.5L660.278 147H624.858V142.49L635.198 134.35V116.75L606.488 70.77L597.908 66.04L600.218 60.54H635.308V65.05L625.848 72.31L646.858 105.97L668.528 73.3L651.478 66.04L654.228 60.54H688.548V65.05L678.868 71.43L651.148 113.56V137.87Z" fill="black"/>
<path d="M79.8899 87.16L80.241 88.0963L80.8899 87.853V87.16H79.8899ZM75.4899 88.81L74.663 89.3723L75.105 90.0223L75.841 89.7463L75.4899 88.81ZM60.5299 66.81L61.3568 66.2477L61.0592 65.81H60.5299V66.81ZM48.4299 66.81V65.81H47.4299V66.81H48.4299ZM48.4299 137.87H47.4299V138.608L48.1352 138.826L48.4299 137.87ZM60.1999 141.5L61.0944 141.947L61.6219 140.892L60.4946 140.544L60.1999 141.5ZM57.4499 147V148H58.068L58.3444 147.447L57.4499 147ZM21.8099 147H20.8099V148H21.8099V147ZM21.8099 142.49L21.1914 141.704L20.8099 142.005V142.49H21.8099ZM32.1499 134.35L32.7685 135.136L33.1499 134.835V134.35H32.1499ZM32.1499 66.81H33.1499V65.81H32.1499V66.81ZM20.3799 66.81V65.81H19.8506L19.553 66.2477L20.3799 66.81ZM5.41992 88.81L5.0688 89.7463L5.80483 90.0223L6.24685 89.3723L5.41992 88.81ZM1.01992 87.16H0.0199203V87.853L0.6688 88.0963L1.01992 87.16ZM1.01992 58.56L1.30294 57.6009L0.0199203 57.2223V58.56H1.01992ZM7.72992 60.54L7.4469 61.4991L7.58546 61.54H7.72992V60.54ZM73.1799 60.54V61.54H73.3244L73.4629 61.4991L73.1799 60.54ZM79.8899 58.56H80.8899V57.2223L79.6069 57.6009L79.8899 58.56ZM79.5388 86.2237L75.1388 87.8737L75.841 89.7463L80.241 88.0963L79.5388 86.2237ZM76.3169 88.2477L61.3568 66.2477L59.703 67.3723L74.663 89.3723L76.3169 88.2477ZM60.5299 65.81H48.4299V67.81H60.5299V65.81ZM47.4299 66.81V137.87H49.4299V66.81H47.4299ZM48.1352 138.826L59.9052 142.456L60.4946 140.544L48.7246 136.914L48.1352 138.826ZM59.3055 141.053L56.5555 146.553L58.3444 147.447L61.0944 141.947L59.3055 141.053ZM57.4499 146H21.8099V148H57.4499V146ZM22.8099 147V142.49H20.8099V147H22.8099ZM22.4285 143.276L32.7685 135.136L31.5314 133.564L21.1914 141.704L22.4285 143.276ZM33.1499 134.35V66.81H31.1499V134.35H33.1499ZM32.1499 65.81H20.3799V67.81H32.1499V65.81ZM19.553 66.2477L4.59299 88.2477L6.24685 89.3723L21.2068 67.3723L19.553 66.2477ZM5.77105 87.8737L1.37104 86.2237L0.6688 88.0963L5.0688 89.7463L5.77105 87.8737ZM2.01992 87.16V58.56H0.0199203V87.16H2.01992ZM0.736904 59.5191L7.4469 61.4991L8.01294 59.5809L1.30294 57.6009L0.736904 59.5191ZM7.72992 61.54H73.1799V59.54H7.72992V61.54ZM73.4629 61.4991L80.1729 59.5191L79.6069 57.6009L72.8969 59.5809L73.4629 61.4991ZM78.8899 58.56V87.16H80.8899V58.56H78.8899ZM174.59 147V148H175.209L175.485 147.447L174.59 147ZM152.7 147L151.841 147.512L152.132 148H152.7V147ZM129.71 108.39L130.57 107.878L130.462 107.697L130.29 107.575L129.71 108.39ZM124.76 104.87L123.861 104.433L123.491 105.194L124.181 105.685L124.76 104.87ZM126.74 100.8V99.8H126.115L125.841 100.363L126.74 100.8ZM143.35 97.06L142.664 96.333V96.333L143.35 97.06ZM142.69 72.97L141.923 73.6118L141.931 73.6208L142.69 72.97ZM119.04 70.99L118.456 70.1788L118.04 70.4781V70.99H119.04ZM119.04 137.76H118.04V138.492L118.738 138.713L119.04 137.76ZM130.81 141.5L131.705 141.947L132.228 140.901L131.113 140.547L130.81 141.5ZM128.06 147V148H128.679L128.955 147.447L128.06 147ZM92.4205 147H91.4205V148H92.4205V147ZM92.4205 142.49L91.7917 141.712L91.4205 142.013V142.49H92.4205ZM102.76 134.13L103.389 134.908L103.76 134.607V134.13H102.76ZM102.76 69.56H103.76V68.8173L103.049 68.6027L102.76 69.56ZM91.1005 66.04L90.206 65.5928L89.6753 66.6543L90.8115 66.9973L91.1005 66.04ZM93.8505 60.54V59.54H93.2324L92.956 60.0928L93.8505 60.54ZM128.06 59.88L127.998 58.8819L127.991 58.8824L128.06 59.88ZM161.61 70.55L160.768 71.0881L160.773 71.0963L161.61 70.55ZM157.98 96.51L158.676 97.2284L157.98 96.51ZM141.26 106.41L140.951 105.459L138.004 106.419L140.956 107.363L141.26 106.41ZM149.18 108.94L150.039 108.428L149.845 108.103L149.485 107.987L149.18 108.94ZM165.13 135.67L164.272 136.182L164.427 136.442L164.7 136.572L165.13 135.67ZM177.34 141.5L178.235 141.947L178.69 141.036L177.771 140.598L177.34 141.5ZM174.59 146H152.7V148H174.59V146ZM153.56 146.488L130.57 107.878L128.851 108.902L151.841 147.512L153.56 146.488ZM130.29 107.575L125.34 104.055L124.181 105.685L129.131 109.205L130.29 107.575ZM125.66 105.307L127.64 101.237L125.841 100.363L123.861 104.433L125.66 105.307ZM126.74 101.8H132.57V99.8H126.74V101.8ZM132.57 101.8C137.305 101.8 141.168 100.497 144.037 97.787L142.664 96.333C140.253 98.6097 136.929 99.8 132.57 99.8V101.8ZM144.037 97.787C146.919 95.0656 148.31 91.3324 148.31 86.72H146.31C146.31 90.9076 145.062 94.0677 142.664 96.333L144.037 97.787ZM148.31 86.72C148.31 80.9526 146.712 76.125 143.45 72.3192L141.931 73.6208C144.829 77.0017 146.31 81.3408 146.31 86.72H148.31ZM143.457 72.3283C140.217 68.4551 135.503 66.58 129.49 66.58V68.58C135.064 68.58 139.151 70.2982 141.924 73.6117L143.457 72.3283ZM129.49 66.58C125.463 66.58 121.776 67.7853 118.456 70.1788L119.625 71.8012C122.612 69.648 125.891 68.58 129.49 68.58V66.58ZM118.04 70.99V137.76H120.04V70.99H118.04ZM118.738 138.713L130.508 142.453L131.113 140.547L119.343 136.807L118.738 138.713ZM129.916 141.053L127.166 146.553L128.955 147.447L131.705 141.947L129.916 141.053ZM128.06 146H92.4205V148H128.06V146ZM93.4205 147V142.49H91.4205V147H93.4205ZM93.0492 143.268L103.389 134.908L102.132 133.352L91.7917 141.712L93.0492 143.268ZM103.76 134.13V69.56H101.76V134.13H103.76ZM103.049 68.6027L91.3895 65.0827L90.8115 66.9973L102.471 70.5173L103.049 68.6027ZM91.9949 66.4872L94.7449 60.9872L92.956 60.0928L90.206 65.5928L91.9949 66.4872ZM93.8505 61.54H108.81V59.54H93.8505V61.54ZM108.81 61.54C115.36 61.54 121.799 61.3192 128.13 60.8776L127.991 58.8824C121.708 59.3208 115.315 59.54 108.81 59.54V61.54ZM128.123 60.878C132.813 60.5849 136.234 60.44 138.4 60.44V58.44C136.167 58.44 132.694 58.5884 127.998 58.8819L128.123 60.878ZM138.4 60.44C143.479 60.44 147.944 61.4049 151.82 63.3077L152.701 61.5123C148.51 59.4551 143.736 58.44 138.4 58.44V60.44ZM151.82 63.3077C155.705 65.2151 158.676 67.8109 160.768 71.088L162.453 70.012C160.145 66.3958 156.882 63.5648 152.701 61.5123L151.82 63.3077ZM160.773 71.0963C162.865 74.3037 163.91 77.8533 163.91 81.77H165.91C165.91 77.4734 164.756 73.5429 162.448 70.0037L160.773 71.0963ZM163.91 81.77C163.91 86.799 161.752 91.4658 157.285 95.7916L158.676 97.2284C163.449 92.6075 165.91 87.4476 165.91 81.77H163.91ZM157.285 95.7916C152.781 100.152 147.343 103.376 140.951 105.459L141.57 107.361C148.232 105.19 153.94 101.815 158.676 97.2284L157.285 95.7916ZM140.956 107.363L148.876 109.893L149.485 107.987L141.565 105.457L140.956 107.363ZM148.322 109.452L164.272 136.182L165.989 135.158L150.039 108.428L148.322 109.452ZM164.7 136.572L176.91 142.402L177.771 140.598L165.561 134.768L164.7 136.572ZM176.446 141.053L173.696 146.553L175.485 147.447L178.235 141.947L176.446 141.053ZM250.625 147L250.908 146.041L250.769 146H250.625V147ZM183.195 147H182.195V148H183.195V147ZM183.195 142.49L182.576 141.704L182.195 142.005V142.49H183.195ZM193.535 134.35L194.153 135.136L194.535 134.835V134.35H193.535ZM193.535 69.78H194.535V69.0506L193.84 68.8278L193.535 69.78ZM181.875 66.04L180.98 65.5928L180.459 66.636L181.569 66.9922L181.875 66.04ZM184.625 60.54V59.54H184.007L183.73 60.0928L184.625 60.54ZM249.525 60.54V61.54H249.669L249.808 61.4991L249.525 60.54ZM256.235 58.56H257.235V57.2223L255.952 57.6009L256.235 58.56ZM256.235 84.96L256.586 85.8963L257.235 85.653V84.96H256.235ZM251.835 86.61L251.005 87.1679L251.446 87.8239L252.186 87.5463L251.835 86.61ZM238.525 66.81L239.354 66.2521L239.057 65.81H238.525V66.81ZM209.815 66.81V65.81H208.815V66.81H209.815ZM209.815 99.7H208.815V100.7H209.815V99.7ZM225.325 99.7V100.7H225.888L226.18 100.219L225.325 99.7ZM233.465 86.28V85.28H232.902L232.61 85.7614L233.465 86.28ZM237.975 86.28H238.975V85.28H237.975V86.28ZM237.975 119.17L238.422 120.064L238.975 119.788V119.17H237.975ZM232.475 121.92L231.56 122.324L231.983 123.284L232.922 122.814L232.475 121.92ZM225.435 105.97L226.349 105.566L226.086 104.97H225.435V105.97ZM209.815 105.97V104.97H208.815V105.97H209.815ZM209.815 140.62H208.815V141.62H209.815V140.62ZM237.975 140.62V141.62H238.502L238.8 141.184L237.975 140.62ZM252.935 118.73L253.286 117.794L252.551 117.518L252.109 118.166L252.935 118.73ZM257.335 120.38H258.335V119.687L257.686 119.444L257.335 120.38ZM257.335 148.98L257.052 149.939L258.335 150.318V148.98H257.335ZM250.625 146H183.195V148H250.625V146ZM184.195 147V142.49H182.195V147H184.195ZM183.813 143.276L194.153 135.136L192.916 133.564L182.576 141.704L183.813 143.276ZM194.535 134.35V69.78H192.535V134.35H194.535ZM193.84 68.8278L182.18 65.0878L181.569 66.9922L193.229 70.7322L193.84 68.8278ZM182.769 66.4872L185.519 60.9872L183.73 60.0928L180.98 65.5928L182.769 66.4872ZM184.625 61.54H249.525V59.54H184.625V61.54ZM249.808 61.4991L256.518 59.5191L255.952 57.6009L249.242 59.5809L249.808 61.4991ZM255.235 58.56V84.96H257.235V58.56H255.235ZM255.883 84.0237L251.483 85.6737L252.186 87.5463L256.586 85.8963L255.883 84.0237ZM252.664 86.0521L239.354 66.2521L237.695 67.3679L251.005 87.1679L252.664 86.0521ZM238.525 65.81H209.815V67.81H238.525V65.81ZM208.815 66.81V99.7H210.815V66.81H208.815ZM209.815 100.7H225.325V98.7H209.815V100.7ZM226.18 100.219L234.32 86.7986L232.61 85.7614L224.47 99.1814L226.18 100.219ZM233.465 87.28H237.975V85.28H233.465V87.28ZM236.975 86.28V119.17H238.975V86.28H236.975ZM237.527 118.276L232.027 121.026L232.922 122.814L238.422 120.064L237.527 118.276ZM233.389 121.516L226.349 105.566L224.52 106.374L231.56 122.324L233.389 121.516ZM225.435 104.97H209.815V106.97H225.435V104.97ZM208.815 105.97V140.62H210.815V105.97H208.815ZM209.815 141.62H237.975V139.62H209.815V141.62ZM238.8 141.184L253.76 119.294L252.109 118.166L237.149 140.056L238.8 141.184ZM252.583 119.666L256.983 121.316L257.686 119.444L253.286 117.794L252.583 119.666ZM256.335 120.38V148.98H258.335V120.38H256.335ZM257.618 148.021L250.908 146.041L250.342 147.959L257.052 149.939L257.618 148.021ZM350.327 73.41L349.702 72.6291L349.327 72.9294V73.41H350.327ZM350.327 147V148H351.327V147H350.327ZM342.847 147L342.074 147.634L342.374 148H342.847V147ZM290.927 83.75L291.7 83.1155L289.927 80.9557V83.75H290.927ZM290.927 135.67H289.927V136.322L290.523 136.585L290.927 135.67ZM304.127 141.5L305.021 141.947L305.49 141.009L304.531 140.585L304.127 141.5ZM301.377 147V148H301.995L302.271 147.447L301.377 147ZM273.107 147H272.107V148H273.107V147ZM273.107 142.49L272.478 141.712L272.107 142.013V142.49H273.107ZM283.447 134.13L284.075 134.908L284.447 134.607V134.13H283.447ZM283.447 72.42H284.447V71.8273L283.927 71.5427L283.447 72.42ZM271.787 66.04L270.892 65.5928L270.461 66.4547L271.307 66.9173L271.787 66.04ZM274.537 60.54V59.54H273.919L273.642 60.0928L274.537 60.54ZM292.247 60.54L293.019 59.9046L292.719 59.54H292.247V60.54ZM342.847 122.03L342.074 122.665L343.847 124.819V122.03H342.847ZM342.847 71.65H343.847V70.9906L343.241 70.7308L342.847 71.65ZM329.757 66.04L328.862 65.5928L328.388 66.5414L329.363 66.9591L329.757 66.04ZM332.507 60.54V59.54H331.889L331.612 60.0928L332.507 60.54ZM360.777 60.54H361.777V59.54H360.777V60.54ZM360.777 65.05L361.401 65.8309L361.777 65.5306V65.05H360.777ZM349.327 73.41V147H351.327V73.41H349.327ZM350.327 146H342.847V148H350.327V146ZM343.62 146.366L291.7 83.1155L290.154 84.3845L342.074 147.634L343.62 146.366ZM289.927 83.75V135.67H291.927V83.75H289.927ZM290.523 136.585L303.723 142.415L304.531 140.585L291.331 134.755L290.523 136.585ZM303.232 141.053L300.482 146.553L302.271 147.447L305.021 141.947L303.232 141.053ZM301.377 146H273.107V148H301.377V146ZM274.107 147V142.49H272.107V147H274.107ZM273.735 143.268L284.075 134.908L282.818 133.352L272.478 141.712L273.735 143.268ZM284.447 134.13V72.42H282.447V134.13H284.447ZM283.927 71.5427L272.267 65.1627L271.307 66.9173L282.967 73.2973L283.927 71.5427ZM272.681 66.4872L275.431 60.9872L273.642 60.0928L270.892 65.5928L272.681 66.4872ZM274.537 61.54H292.247V59.54H274.537V61.54ZM291.474 61.1754L342.074 122.665L343.619 121.395L293.019 59.9046L291.474 61.1754ZM343.847 122.03V71.65H341.847V122.03H343.847ZM343.241 70.7308L330.151 65.1208L329.363 66.9591L342.453 72.5691L343.241 70.7308ZM330.651 66.4872L333.401 60.9872L331.612 60.0928L328.862 65.5928L330.651 66.4872ZM332.507 61.54H360.777V59.54H332.507V61.54ZM359.777 60.54V65.05H361.777V60.54H359.777ZM360.152 64.2691L349.702 72.6291L350.951 74.1909L361.401 65.8309L360.152 64.2691ZM416.523 59.55H415.523V60.55H416.523V59.55ZM437.313 65.05L436.793 65.9038L436.799 65.9075L436.805 65.9111L437.313 65.05ZM451.393 80.12L452.284 79.6647V79.6647L451.393 80.12ZM448.753 125.22L447.939 124.64L447.937 124.642L448.753 125.22ZM430.053 142.05L430.535 142.927L430.541 142.923L430.053 142.05ZM398.593 147.66L398.704 146.666L398.681 146.664L398.658 146.662L398.593 147.66ZM370.323 147.11H369.323V148.11H370.323V147.11ZM370.323 142.6L369.705 141.814L369.323 142.115V142.6H370.323ZM380.663 134.46L381.282 135.246L381.663 134.945V134.46H380.663ZM380.663 69.78H381.663V69.0506L380.969 68.8278L380.663 69.78ZM369.003 66.04L368.109 65.5928L367.587 66.636L368.698 66.9922L369.003 66.04ZM371.753 60.54V59.54H371.135L370.859 60.0928L371.753 60.54ZM405.743 59.88L405.683 58.8818L405.677 58.8822L405.743 59.88ZM416.523 59.44H417.523V58.44H416.523V59.44ZM411.793 139.3H410.793V140.3H411.793V139.3ZM425.543 135.23L426.095 136.064L426.105 136.057L425.543 135.23ZM435.223 123.79L436.123 124.226L436.126 124.221L435.223 123.79ZM435.333 87.49L434.394 87.8336L434.397 87.8405L434.4 87.8474L435.333 87.49ZM425.103 73.19L424.489 73.9794L424.497 73.9854L425.103 73.19ZM396.943 71.21L396.376 70.3865L395.943 70.6846V71.21H396.943ZM396.943 136.77H395.943V137.456L396.583 137.703L396.943 136.77ZM411.793 139.19H412.793V138.19H411.793V139.19ZM416.523 60.55C424.208 60.55 430.954 62.3434 436.793 65.9038L437.834 64.1962C431.646 60.4233 424.532 58.55 416.523 58.55V60.55ZM436.805 65.9111C442.724 69.4056 447.287 74.2862 450.503 80.5753L452.284 79.6647C448.9 73.0472 444.076 67.8811 437.822 64.1889L436.805 65.9111ZM450.503 80.5753C453.723 86.8711 455.343 94.0086 455.343 102.01H457.343C457.343 93.7314 455.664 86.2755 452.284 79.6647L450.503 80.5753ZM455.343 102.01C455.343 110.153 452.884 117.688 447.939 124.64L449.568 125.8C454.743 118.525 457.343 110.587 457.343 102.01H455.343ZM447.937 124.642C443.036 131.561 436.915 137.07 429.566 141.177L430.541 142.923C438.152 138.67 444.497 132.959 449.569 125.798L447.937 124.642ZM429.572 141.173C422.201 145.22 415.253 147.21 408.713 147.21V149.21C415.667 149.21 422.945 147.093 430.535 142.927L429.572 141.173ZM408.713 147.21C405.302 147.21 401.966 147.029 398.704 146.666L398.483 148.654C401.821 149.025 405.231 149.21 408.713 149.21V147.21ZM398.658 146.662C393.006 146.295 388.69 146.11 385.723 146.11V148.11C388.624 148.11 392.888 148.292 398.529 148.658L398.658 146.662ZM385.723 146.11H370.323V148.11H385.723V146.11ZM371.323 147.11V142.6H369.323V147.11H371.323ZM370.942 143.386L381.282 135.246L380.045 133.674L369.705 141.814L370.942 143.386ZM381.663 134.46V69.78H379.663V134.46H381.663ZM380.969 68.8278L369.309 65.0878L368.698 66.9922L380.358 70.7322L380.969 68.8278ZM369.898 66.4872L372.648 60.9872L370.859 60.0928L368.109 65.5928L369.898 66.4872ZM371.753 61.54H385.613V59.54H371.753V61.54ZM385.613 61.54C392.455 61.54 399.187 61.3193 405.81 60.8778L405.677 58.8822C399.1 59.3207 392.412 59.54 385.613 59.54V61.54ZM405.804 60.8782C410.64 60.5851 414.209 60.44 416.523 60.44V58.44C414.145 58.44 410.527 58.5883 405.683 58.8818L405.804 60.8782ZM415.523 59.44V59.55H417.523V59.44H415.523ZM411.793 140.3C417.044 140.3 421.82 138.889 426.095 136.064L424.992 134.396C421.054 136.998 416.663 138.3 411.793 138.3V140.3ZM426.105 136.057C430.369 133.164 433.707 129.21 436.123 124.226L434.324 123.354C432.047 128.05 428.931 131.723 424.982 134.403L426.105 136.057ZM436.126 124.221C438.544 119.158 439.743 113.508 439.743 107.29H437.743C437.743 113.245 436.596 118.595 434.321 123.359L436.126 124.221ZM439.743 107.29C439.743 99.9249 438.59 93.2016 436.267 87.1326L434.4 87.8474C436.623 93.6584 437.743 100.135 437.743 107.29H439.743ZM436.273 87.1464C434.014 80.9728 430.497 76.042 425.709 72.3946L424.497 73.9854C428.95 77.378 432.253 81.9805 434.394 87.8336L436.273 87.1464ZM425.717 72.4006C420.894 68.649 414.948 66.8 407.943 66.8V68.8C414.579 68.8 420.073 70.5443 424.49 73.9794L425.717 72.4006ZM407.943 66.8C403.709 66.8 399.844 67.9974 396.376 70.3865L397.511 72.0335C400.643 69.8759 404.111 68.8 407.943 68.8V66.8ZM395.943 71.21V136.77H397.943V71.21H395.943ZM396.583 137.703C400.905 139.371 405.983 140.19 411.793 140.19V138.19C406.164 138.19 401.342 137.396 397.304 135.837L396.583 137.703ZM410.793 139.19V139.3H412.793V139.19H410.793ZM505.221 147V148H505.839L506.116 147.447L505.221 147ZM469.581 147H468.581V148H469.581V147ZM469.581 142.49L468.953 141.712L468.581 142.013V142.49H469.581ZM479.921 134.13L480.55 134.908L480.921 134.607V134.13H479.921ZM479.921 69.67H480.921V68.934L480.219 68.7152L479.921 69.67ZM468.261 66.04L467.367 65.5928L466.841 66.6451L467.964 66.9948L468.261 66.04ZM471.011 60.54V59.54H470.393L470.117 60.0928L471.011 60.54ZM506.651 60.54H507.651V59.54H506.651V60.54ZM506.651 65.05L507.276 65.8309L507.651 65.5306V65.05H506.651ZM496.201 73.41L495.577 72.6291L495.201 72.9294V73.41H496.201ZM496.201 137.76H495.201V138.492L495.898 138.713L496.201 137.76ZM507.971 141.5L508.866 141.947L509.389 140.901L508.274 140.547L507.971 141.5ZM505.221 146H469.581V148H505.221V146ZM470.581 147V142.49H468.581V147H470.581ZM470.21 143.268L480.55 134.908L479.293 133.352L468.953 141.712L470.21 143.268ZM480.921 134.13V69.67H478.921V134.13H480.921ZM480.219 68.7152L468.558 65.0852L467.964 66.9948L479.624 70.6248L480.219 68.7152ZM469.156 66.4872L471.906 60.9872L470.117 60.0928L467.367 65.5928L469.156 66.4872ZM471.011 61.54H506.651V59.54H471.011V61.54ZM505.651 60.54V65.05H507.651V60.54H505.651ZM506.027 64.2691L495.577 72.6291L496.826 74.1909L507.276 65.8309L506.027 64.2691ZM495.201 73.41V137.76H497.201V73.41H495.201ZM495.898 138.713L507.668 142.453L508.274 140.547L496.504 136.807L495.898 138.713ZM507.077 141.053L504.327 146.553L506.116 147.447L508.866 141.947L507.077 141.053ZM591.82 84.96L592.172 85.8963L592.82 85.653V84.96H591.82ZM587.42 86.61L586.595 87.1742L587.037 87.8217L587.772 87.5463L587.42 86.61ZM573.891 66.81L574.716 66.2458L574.418 65.81H573.891V66.81ZM545.4 66.81V65.81H544.4V66.81H545.4ZM545.4 99.7H544.4V100.7H545.4V99.7ZM560.91 99.7V100.7H561.474L561.766 100.219L560.91 99.7ZM569.05 86.28V85.28H568.487L568.195 85.7614L569.05 86.28ZM573.56 86.28H574.56V85.28H573.56V86.28ZM573.56 117.19L574.008 118.084L574.56 117.808V117.19H573.56ZM568.06 119.94L567.165 120.384L567.61 121.283L568.508 120.834L568.06 119.94ZM561.13 105.97L562.026 105.526L561.751 104.97H561.13V105.97ZM545.4 105.97V104.97H544.4V105.97H545.4ZM545.4 137.1H544.4V137.883L545.161 138.071L545.4 137.1ZM563.22 141.5L564.115 141.947L564.674 140.829L563.46 140.529L563.22 141.5ZM560.47 147V148H561.089L561.365 147.447L560.47 147ZM518.78 147H517.78V148H518.78V147ZM518.78 142.49L518.162 141.704L517.78 142.005V142.49H518.78ZM529.12 134.35L529.739 135.136L530.12 134.835V134.35H529.12ZM529.12 69.78H530.12V69.0506L529.426 68.8278L529.12 69.78ZM517.46 66.04L516.566 65.5928L516.044 66.636L517.155 66.9922L517.46 66.04ZM520.21 60.54V59.54H519.592L519.316 60.0928L520.21 60.54ZM585.11 60.54V61.54H585.255L585.393 61.4991L585.11 60.54ZM591.82 58.56H592.82V57.2223L591.537 57.6009L591.82 58.56ZM591.469 84.0237L587.069 85.6737L587.772 87.5463L592.172 85.8963L591.469 84.0237ZM588.246 86.0458L574.716 66.2458L573.065 67.3742L586.595 87.1742L588.246 86.0458ZM573.891 65.81H545.4V67.81H573.891V65.81ZM544.4 66.81V99.7H546.4V66.81H544.4ZM545.4 100.7H560.91V98.7H545.4V100.7ZM561.766 100.219L569.905 86.7986L568.195 85.7614L560.055 99.1814L561.766 100.219ZM569.05 87.28H573.56V85.28H569.05V87.28ZM572.56 86.28V117.19H574.56V86.28H572.56ZM573.113 116.296L567.613 119.046L568.508 120.834L574.008 118.084L573.113 116.296ZM568.956 119.496L562.026 105.526L560.235 106.414L567.165 120.384L568.956 119.496ZM561.13 104.97H545.4V106.97H561.13V104.97ZM544.4 105.97V137.1H546.4V105.97H544.4ZM545.161 138.071L562.981 142.471L563.46 140.529L545.64 136.129L545.161 138.071ZM562.326 141.053L559.576 146.553L561.365 147.447L564.115 141.947L562.326 141.053ZM560.47 146H518.78V148H560.47V146ZM519.78 147V142.49H517.78V147H519.78ZM519.399 143.276L529.739 135.136L528.502 133.564L518.162 141.704L519.399 143.276ZM530.12 134.35V69.78H528.12V134.35H530.12ZM529.426 68.8278L517.766 65.0878L517.155 66.9922L528.815 70.7322L529.426 68.8278ZM518.355 66.4872L521.105 60.9872L519.316 60.0928L516.566 65.5928L518.355 66.4872ZM520.21 61.54H585.11V59.54H520.21V61.54ZM585.393 61.4991L592.104 59.5191L591.537 57.6009L584.827 59.5809L585.393 61.4991ZM590.82 58.56V84.96H592.82V58.56H590.82ZM651.148 137.87H650.148V138.61L650.856 138.826L651.148 137.87ZM663.028 141.5L663.923 141.947L664.452 140.889L663.32 140.544L663.028 141.5ZM660.278 147V148H660.896L661.173 147.447L660.278 147ZM624.858 147H623.858V148H624.858V147ZM624.858 142.49L624.24 141.704L623.858 142.005V142.49H624.858ZM635.198 134.35L635.817 135.136L636.198 134.835V134.35H635.198ZM635.198 116.75H636.198V116.463L636.047 116.22L635.198 116.75ZM606.488 70.77L607.336 70.2404L607.199 70.0198L606.971 69.8943L606.488 70.77ZM597.908 66.04L596.986 65.6528L596.638 66.4817L597.425 66.9157L597.908 66.04ZM600.218 60.54V59.54H599.554L599.296 60.1528L600.218 60.54ZM635.308 60.54H636.308V59.54H635.308V60.54ZM635.308 65.05L635.917 65.8433L636.308 65.5431V65.05H635.308ZM625.848 72.31L625.239 71.5167L624.519 72.0694L625 72.8395L625.848 72.31ZM646.858 105.97L646.01 106.499L646.833 107.818L647.692 106.523L646.858 105.97ZM668.528 73.3L669.362 73.8528L670.026 72.8509L668.92 72.3799L668.528 73.3ZM651.478 66.04L650.584 65.5928L650.108 66.5436L651.086 66.9601L651.478 66.04ZM654.228 60.54V59.54H653.61L653.334 60.0928L654.228 60.54ZM688.548 60.54H689.548V59.54H688.548V60.54ZM688.548 65.05L689.099 65.885L689.548 65.5886V65.05H688.548ZM678.868 71.43L678.318 70.595L678.146 70.7083L678.033 70.8803L678.868 71.43ZM651.148 113.56L650.313 113.01L650.148 113.261V113.56H651.148ZM650.856 138.826L662.736 142.456L663.32 140.544L651.44 136.914L650.856 138.826ZM662.134 141.053L659.384 146.553L661.173 147.447L663.923 141.947L662.134 141.053ZM660.278 146H624.858V148H660.278V146ZM625.858 147V142.49H623.858V147H625.858ZM625.477 143.276L635.817 135.136L634.58 133.564L624.24 141.704L625.477 143.276ZM636.198 134.35V116.75H634.198V134.35H636.198ZM636.047 116.22L607.336 70.2404L605.64 71.2996L634.35 117.28L636.047 116.22ZM606.971 69.8943L598.391 65.1643L597.425 66.9157L606.005 71.6457L606.971 69.8943ZM598.83 66.4272L601.14 60.9272L599.296 60.1528L596.986 65.6528L598.83 66.4272ZM600.218 61.54H635.308V59.54H600.218V61.54ZM634.308 60.54V65.05H636.308V60.54H634.308ZM634.699 64.2567L625.239 71.5167L626.457 73.1033L635.917 65.8433L634.699 64.2567ZM625 72.8395L646.01 106.499L647.707 105.44L626.697 71.7805L625 72.8395ZM647.692 106.523L669.362 73.8528L667.695 72.7472L646.025 105.417L647.692 106.523ZM668.92 72.3799L651.87 65.1199L651.086 66.9601L668.137 74.2201L668.92 72.3799ZM652.373 66.4872L655.123 60.9872L653.334 60.0928L650.584 65.5928L652.373 66.4872ZM654.228 61.54H688.548V59.54H654.228V61.54ZM687.548 60.54V65.05H689.548V60.54H687.548ZM687.998 64.215L678.318 70.595L679.419 72.265L689.099 65.885L687.998 64.215ZM678.033 70.8803L650.313 113.01L651.984 114.11L679.704 71.9797L678.033 70.8803ZM650.148 113.56V137.87H652.148V113.56H650.148Z" fill="white" mask="url(#path-1-outside-1_0_1)"/>
<path d="M79.8899 87.16L80.241 88.0963L80.8899 87.853V87.16H79.8899ZM75.4899 88.81L74.663 89.3723L75.105 90.0223L75.841 89.7463L75.4899 88.81ZM60.5299 66.81L61.3568 66.2477L61.0592 65.81H60.5299V66.81ZM48.4299 66.81V65.81H47.4299V66.81H48.4299ZM48.4299 137.87H47.4299V138.608L48.1352 138.826L48.4299 137.87ZM60.1999 141.5L61.0944 141.947L61.6219 140.892L60.4946 140.544L60.1999 141.5ZM57.4499 147V148H58.068L58.3444 147.447L57.4499 147ZM21.8099 147H20.8099V148H21.8099V147ZM21.8099 142.49L21.1914 141.704L20.8099 142.005V142.49H21.8099ZM32.1499 134.35L32.7685 135.136L33.1499 134.835V134.35H32.1499ZM32.1499 66.81H33.1499V65.81H32.1499V66.81ZM20.3799 66.81V65.81H19.8506L19.553 66.2477L20.3799 66.81ZM5.41992 88.81L5.0688 89.7463L5.80483 90.0223L6.24685 89.3723L5.41992 88.81ZM1.01992 87.16H0.0199203V87.853L0.6688 88.0963L1.01992 87.16ZM1.01992 58.56L1.30294 57.6009L0.0199203 57.2223V58.56H1.01992ZM7.72992 60.54L7.4469 61.4991L7.58546 61.54H7.72992V60.54ZM73.1799 60.54V61.54H73.3244L73.4629 61.4991L73.1799 60.54ZM79.8899 58.56H80.8899V57.2223L79.6069 57.6009L79.8899 58.56ZM79.5388 86.2237L75.1388 87.8737L75.841 89.7463L80.241 88.0963L79.5388 86.2237ZM76.3169 88.2477L61.3568 66.2477L59.703 67.3723L74.663 89.3723L76.3169 88.2477ZM60.5299 65.81H48.4299V67.81H60.5299V65.81ZM47.4299 66.81V137.87H49.4299V66.81H47.4299ZM48.1352 138.826L59.9052 142.456L60.4946 140.544L48.7246 136.914L48.1352 138.826ZM59.3055 141.053L56.5555 146.553L58.3444 147.447L61.0944 141.947L59.3055 141.053ZM57.4499 146H21.8099V148H57.4499V146ZM22.8099 147V142.49H20.8099V147H22.8099ZM22.4285 143.276L32.7685 135.136L31.5314 133.564L21.1914 141.704L22.4285 143.276ZM33.1499 134.35V66.81H31.1499V134.35H33.1499ZM32.1499 65.81H20.3799V67.81H32.1499V65.81ZM19.553 66.2477L4.59299 88.2477L6.24685 89.3723L21.2068 67.3723L19.553 66.2477ZM5.77105 87.8737L1.37104 86.2237L0.6688 88.0963L5.0688 89.7463L5.77105 87.8737ZM2.01992 87.16V58.56H0.0199203V87.16H2.01992ZM0.736904 59.5191L7.4469 61.4991L8.01294 59.5809L1.30294 57.6009L0.736904 59.5191ZM7.72992 61.54H73.1799V59.54H7.72992V61.54ZM73.4629 61.4991L80.1729 59.5191L79.6069 57.6009L72.8969 59.5809L73.4629 61.4991ZM78.8899 58.56V87.16H80.8899V58.56H78.8899ZM174.59 147V148H175.209L175.485 147.447L174.59 147ZM152.7 147L151.841 147.512L152.132 148H152.7V147ZM129.71 108.39L130.57 107.878L130.462 107.697L130.29 107.575L129.71 108.39ZM124.76 104.87L123.861 104.433L123.491 105.194L124.181 105.685L124.76 104.87ZM126.74 100.8V99.8H126.115L125.841 100.363L126.74 100.8ZM143.35 97.06L142.664 96.333V96.333L143.35 97.06ZM142.69 72.97L141.923 73.6118L141.931 73.6208L142.69 72.97ZM119.04 70.99L118.456 70.1788L118.04 70.4781V70.99H119.04ZM119.04 137.76H118.04V138.492L118.738 138.713L119.04 137.76ZM130.81 141.5L131.705 141.947L132.228 140.901L131.113 140.547L130.81 141.5ZM128.06 147V148H128.679L128.955 147.447L128.06 147ZM92.4205 147H91.4205V148H92.4205V147ZM92.4205 142.49L91.7917 141.712L91.4205 142.013V142.49H92.4205ZM102.76 134.13L103.389 134.908L103.76 134.607V134.13H102.76ZM102.76 69.56H103.76V68.8173L103.049 68.6027L102.76 69.56ZM91.1005 66.04L90.206 65.5928L89.6753 66.6543L90.8115 66.9973L91.1005 66.04ZM93.8505 60.54V59.54H93.2324L92.956 60.0928L93.8505 60.54ZM128.06 59.88L127.998 58.8819L127.991 58.8824L128.06 59.88ZM161.61 70.55L160.768 71.0881L160.773 71.0963L161.61 70.55ZM157.98 96.51L158.676 97.2284L157.98 96.51ZM141.26 106.41L140.951 105.459L138.004 106.419L140.956 107.363L141.26 106.41ZM149.18 108.94L150.039 108.428L149.845 108.103L149.485 107.987L149.18 108.94ZM165.13 135.67L164.272 136.182L164.427 136.442L164.7 136.572L165.13 135.67ZM177.34 141.5L178.235 141.947L178.69 141.036L177.771 140.598L177.34 141.5ZM174.59 146H152.7V148H174.59V146ZM153.56 146.488L130.57 107.878L128.851 108.902L151.841 147.512L153.56 146.488ZM130.29 107.575L125.34 104.055L124.181 105.685L129.131 109.205L130.29 107.575ZM125.66 105.307L127.64 101.237L125.841 100.363L123.861 104.433L125.66 105.307ZM126.74 101.8H132.57V99.8H126.74V101.8ZM132.57 101.8C137.305 101.8 141.168 100.497 144.037 97.787L142.664 96.333C140.253 98.6097 136.929 99.8 132.57 99.8V101.8ZM144.037 97.787C146.919 95.0656 148.31 91.3324 148.31 86.72H146.31C146.31 90.9076 145.062 94.0677 142.664 96.333L144.037 97.787ZM148.31 86.72C148.31 80.9526 146.712 76.125 143.45 72.3192L141.931 73.6208C144.829 77.0017 146.31 81.3408 146.31 86.72H148.31ZM143.457 72.3283C140.217 68.4551 135.503 66.58 129.49 66.58V68.58C135.064 68.58 139.151 70.2982 141.924 73.6117L143.457 72.3283ZM129.49 66.58C125.463 66.58 121.776 67.7853 118.456 70.1788L119.625 71.8012C122.612 69.648 125.891 68.58 129.49 68.58V66.58ZM118.04 70.99V137.76H120.04V70.99H118.04ZM118.738 138.713L130.508 142.453L131.113 140.547L119.343 136.807L118.738 138.713ZM129.916 141.053L127.166 146.553L128.955 147.447L131.705 141.947L129.916 141.053ZM128.06 146H92.4205V148H128.06V146ZM93.4205 147V142.49H91.4205V147H93.4205ZM93.0492 143.268L103.389 134.908L102.132 133.352L91.7917 141.712L93.0492 143.268ZM103.76 134.13V69.56H101.76V134.13H103.76ZM103.049 68.6027L91.3895 65.0827L90.8115 66.9973L102.471 70.5173L103.049 68.6027ZM91.9949 66.4872L94.7449 60.9872L92.956 60.0928L90.206 65.5928L91.9949 66.4872ZM93.8505 61.54H108.81V59.54H93.8505V61.54ZM108.81 61.54C115.36 61.54 121.799 61.3192 128.13 60.8776L127.991 58.8824C121.708 59.3208 115.315 59.54 108.81 59.54V61.54ZM128.123 60.878C132.813 60.5849 136.234 60.44 138.4 60.44V58.44C136.167 58.44 132.694 58.5884 127.998 58.8819L128.123 60.878ZM138.4 60.44C143.479 60.44 147.944 61.4049 151.82 63.3077L152.701 61.5123C148.51 59.4551 143.736 58.44 138.4 58.44V60.44ZM151.82 63.3077C155.705 65.2151 158.676 67.8109 160.768 71.088L162.453 70.012C160.145 66.3958 156.882 63.5648 152.701 61.5123L151.82 63.3077ZM160.773 71.0963C162.865 74.3037 163.91 77.8533 163.91 81.77H165.91C165.91 77.4734 164.756 73.5429 162.448 70.0037L160.773 71.0963ZM163.91 81.77C163.91 86.799 161.752 91.4658 157.285 95.7916L158.676 97.2284C163.449 92.6075 165.91 87.4476 165.91 81.77H163.91ZM157.285 95.7916C152.781 100.152 147.343 103.376 140.951 105.459L141.57 107.361C148.232 105.19 153.94 101.815 158.676 97.2284L157.285 95.7916ZM140.956 107.363L148.876 109.893L149.485 107.987L141.565 105.457L140.956 107.363ZM148.322 109.452L164.272 136.182L165.989 135.158L150.039 108.428L148.322 109.452ZM164.7 136.572L176.91 142.402L177.771 140.598L165.561 134.768L164.7 136.572ZM176.446 141.053L173.696 146.553L175.485 147.447L178.235 141.947L176.446 141.053ZM250.625 147L250.908 146.041L250.769 146H250.625V147ZM183.195 147H182.195V148H183.195V147ZM183.195 142.49L182.576 141.704L182.195 142.005V142.49H183.195ZM193.535 134.35L194.153 135.136L194.535 134.835V134.35H193.535ZM193.535 69.78H194.535V69.0506L193.84 68.8278L193.535 69.78ZM181.875 66.04L180.98 65.5928L180.459 66.636L181.569 66.9922L181.875 66.04ZM184.625 60.54V59.54H184.007L183.73 60.0928L184.625 60.54ZM249.525 60.54V61.54H249.669L249.808 61.4991L249.525 60.54ZM256.235 58.56H257.235V57.2223L255.952 57.6009L256.235 58.56ZM256.235 84.96L256.586 85.8963L257.235 85.653V84.96H256.235ZM251.835 86.61L251.005 87.1679L251.446 87.8239L252.186 87.5463L251.835 86.61ZM238.525 66.81L239.354 66.2521L239.057 65.81H238.525V66.81ZM209.815 66.81V65.81H208.815V66.81H209.815ZM209.815 99.7H208.815V100.7H209.815V99.7ZM225.325 99.7V100.7H225.888L226.18 100.219L225.325 99.7ZM233.465 86.28V85.28H232.902L232.61 85.7614L233.465 86.28ZM237.975 86.28H238.975V85.28H237.975V86.28ZM237.975 119.17L238.422 120.064L238.975 119.788V119.17H237.975ZM232.475 121.92L231.56 122.324L231.983 123.284L232.922 122.814L232.475 121.92ZM225.435 105.97L226.349 105.566L226.086 104.97H225.435V105.97ZM209.815 105.97V104.97H208.815V105.97H209.815ZM209.815 140.62H208.815V141.62H209.815V140.62ZM237.975 140.62V141.62H238.502L238.8 141.184L237.975 140.62ZM252.935 118.73L253.286 117.794L252.551 117.518L252.109 118.166L252.935 118.73ZM257.335 120.38H258.335V119.687L257.686 119.444L257.335 120.38ZM257.335 148.98L257.052 149.939L258.335 150.318V148.98H257.335ZM250.625 146H183.195V148H250.625V146ZM184.195 147V142.49H182.195V147H184.195ZM183.813 143.276L194.153 135.136L192.916 133.564L182.576 141.704L183.813 143.276ZM194.535 134.35V69.78H192.535V134.35H194.535ZM193.84 68.8278L182.18 65.0878L181.569 66.9922L193.229 70.7322L193.84 68.8278ZM182.769 66.4872L185.519 60.9872L183.73 60.0928L180.98 65.5928L182.769 66.4872ZM184.625 61.54H249.525V59.54H184.625V61.54ZM249.808 61.4991L256.518 59.5191L255.952 57.6009L249.242 59.5809L249.808 61.4991ZM255.235 58.56V84.96H257.235V58.56H255.235ZM255.883 84.0237L251.483 85.6737L252.186 87.5463L256.586 85.8963L255.883 84.0237ZM252.664 86.0521L239.354 66.2521L237.695 67.3679L251.005 87.1679L252.664 86.0521ZM238.525 65.81H209.815V67.81H238.525V65.81ZM208.815 66.81V99.7H210.815V66.81H208.815ZM209.815 100.7H225.325V98.7H209.815V100.7ZM226.18 100.219L234.32 86.7986L232.61 85.7614L224.47 99.1814L226.18 100.219ZM233.465 87.28H237.975V85.28H233.465V87.28ZM236.975 86.28V119.17H238.975V86.28H236.975ZM237.527 118.276L232.027 121.026L232.922 122.814L238.422 120.064L237.527 118.276ZM233.389 121.516L226.349 105.566L224.52 106.374L231.56 122.324L233.389 121.516ZM225.435 104.97H209.815V106.97H225.435V104.97ZM208.815 105.97V140.62H210.815V105.97H208.815ZM209.815 141.62H237.975V139.62H209.815V141.62ZM238.8 141.184L253.76 119.294L252.109 118.166L237.149 140.056L238.8 141.184ZM252.583 119.666L256.983 121.316L257.686 119.444L253.286 117.794L252.583 119.666ZM256.335 120.38V148.98H258.335V120.38H256.335ZM257.618 148.021L250.908 146.041L250.342 147.959L257.052 149.939L257.618 148.021ZM350.327 73.41L349.702 72.6291L349.327 72.9294V73.41H350.327ZM350.327 147V148H351.327V147H350.327ZM342.847 147L342.074 147.634L342.374 148H342.847V147ZM290.927 83.75L291.7 83.1155L289.927 80.9557V83.75H290.927ZM290.927 135.67H289.927V136.322L290.523 136.585L290.927 135.67ZM304.127 141.5L305.021 141.947L305.49 141.009L304.531 140.585L304.127 141.5ZM301.377 147V148H301.995L302.271 147.447L301.377 147ZM273.107 147H272.107V148H273.107V147ZM273.107 142.49L272.478 141.712L272.107 142.013V142.49H273.107ZM283.447 134.13L284.075 134.908L284.447 134.607V134.13H283.447ZM283.447 72.42H284.447V71.8273L283.927 71.5427L283.447 72.42ZM271.787 66.04L270.892 65.5928L270.461 66.4547L271.307 66.9173L271.787 66.04ZM274.537 60.54V59.54H273.919L273.642 60.0928L274.537 60.54ZM292.247 60.54L293.019 59.9046L292.719 59.54H292.247V60.54ZM342.847 122.03L342.074 122.665L343.847 124.819V122.03H342.847ZM342.847 71.65H343.847V70.9906L343.241 70.7308L342.847 71.65ZM329.757 66.04L328.862 65.5928L328.388 66.5414L329.363 66.9591L329.757 66.04ZM332.507 60.54V59.54H331.889L331.612 60.0928L332.507 60.54ZM360.777 60.54H361.777V59.54H360.777V60.54ZM360.777 65.05L361.401 65.8309L361.777 65.5306V65.05H360.777ZM349.327 73.41V147H351.327V73.41H349.327ZM350.327 146H342.847V148H350.327V146ZM343.62 146.366L291.7 83.1155L290.154 84.3845L342.074 147.634L343.62 146.366ZM289.927 83.75V135.67H291.927V83.75H289.927ZM290.523 136.585L303.723 142.415L304.531 140.585L291.331 134.755L290.523 136.585ZM303.232 141.053L300.482 146.553L302.271 147.447L305.021 141.947L303.232 141.053ZM301.377 146H273.107V148H301.377V146ZM274.107 147V142.49H272.107V147H274.107ZM273.735 143.268L284.075 134.908L282.818 133.352L272.478 141.712L273.735 143.268ZM284.447 134.13V72.42H282.447V134.13H284.447ZM283.927 71.5427L272.267 65.1627L271.307 66.9173L282.967 73.2973L283.927 71.5427ZM272.681 66.4872L275.431 60.9872L273.642 60.0928L270.892 65.5928L272.681 66.4872ZM274.537 61.54H292.247V59.54H274.537V61.54ZM291.474 61.1754L342.074 122.665L343.619 121.395L293.019 59.9046L291.474 61.1754ZM343.847 122.03V71.65H341.847V122.03H343.847ZM343.241 70.7308L330.151 65.1208L329.363 66.9591L342.453 72.5691L343.241 70.7308ZM330.651 66.4872L333.401 60.9872L331.612 60.0928L328.862 65.5928L330.651 66.4872ZM332.507 61.54H360.777V59.54H332.507V61.54ZM359.777 60.54V65.05H361.777V60.54H359.777ZM360.152 64.2691L349.702 72.6291L350.951 74.1909L361.401 65.8309L360.152 64.2691ZM416.523 59.55H415.523V60.55H416.523V59.55ZM437.313 65.05L436.793 65.9038L436.799 65.9075L436.805 65.9111L437.313 65.05ZM451.393 80.12L452.284 79.6647V79.6647L451.393 80.12ZM448.753 125.22L447.939 124.64L447.937 124.642L448.753 125.22ZM430.053 142.05L430.535 142.927L430.541 142.923L430.053 142.05ZM398.593 147.66L398.704 146.666L398.681 146.664L398.658 146.662L398.593 147.66ZM370.323 147.11H369.323V148.11H370.323V147.11ZM370.323 142.6L369.705 141.814L369.323 142.115V142.6H370.323ZM380.663 134.46L381.282 135.246L381.663 134.945V134.46H380.663ZM380.663 69.78H381.663V69.0506L380.969 68.8278L380.663 69.78ZM369.003 66.04L368.109 65.5928L367.587 66.636L368.698 66.9922L369.003 66.04ZM371.753 60.54V59.54H371.135L370.859 60.0928L371.753 60.54ZM405.743 59.88L405.683 58.8818L405.677 58.8822L405.743 59.88ZM416.523 59.44H417.523V58.44H416.523V59.44ZM411.793 139.3H410.793V140.3H411.793V139.3ZM425.543 135.23L426.095 136.064L426.105 136.057L425.543 135.23ZM435.223 123.79L436.123 124.226L436.126 124.221L435.223 123.79ZM435.333 87.49L434.394 87.8336L434.397 87.8405L434.4 87.8474L435.333 87.49ZM425.103 73.19L424.489 73.9794L424.497 73.9854L425.103 73.19ZM396.943 71.21L396.376 70.3865L395.943 70.6846V71.21H396.943ZM396.943 136.77H395.943V137.456L396.583 137.703L396.943 136.77ZM411.793 139.19H412.793V138.19H411.793V139.19ZM416.523 60.55C424.208 60.55 430.954 62.3434 436.793 65.9038L437.834 64.1962C431.646 60.4233 424.532 58.55 416.523 58.55V60.55ZM436.805 65.9111C442.724 69.4056 447.287 74.2862 450.503 80.5753L452.284 79.6647C448.9 73.0472 444.076 67.8811 437.822 64.1889L436.805 65.9111ZM450.503 80.5753C453.723 86.8711 455.343 94.0086 455.343 102.01H457.343C457.343 93.7314 455.664 86.2755 452.284 79.6647L450.503 80.5753ZM455.343 102.01C455.343 110.153 452.884 117.688 447.939 124.64L449.568 125.8C454.743 118.525 457.343 110.587 457.343 102.01H455.343ZM447.937 124.642C443.036 131.561 436.915 137.07 429.566 141.177L430.541 142.923C438.152 138.67 444.497 132.959 449.569 125.798L447.937 124.642ZM429.572 141.173C422.201 145.22 415.253 147.21 408.713 147.21V149.21C415.667 149.21 422.945 147.093 430.535 142.927L429.572 141.173ZM408.713 147.21C405.302 147.21 401.966 147.029 398.704 146.666L398.483 148.654C401.821 149.025 405.231 149.21 408.713 149.21V147.21ZM398.658 146.662C393.006 146.295 388.69 146.11 385.723 146.11V148.11C388.624 148.11 392.888 148.292 398.529 148.658L398.658 146.662ZM385.723 146.11H370.323V148.11H385.723V146.11ZM371.323 147.11V142.6H369.323V147.11H371.323ZM370.942 143.386L381.282 135.246L380.045 133.674L369.705 141.814L370.942 143.386ZM381.663 134.46V69.78H379.663V134.46H381.663ZM380.969 68.8278L369.309 65.0878L368.698 66.9922L380.358 70.7322L380.969 68.8278ZM369.898 66.4872L372.648 60.9872L370.859 60.0928L368.109 65.5928L369.898 66.4872ZM371.753 61.54H385.613V59.54H371.753V61.54ZM385.613 61.54C392.455 61.54 399.187 61.3193 405.81 60.8778L405.677 58.8822C399.1 59.3207 392.412 59.54 385.613 59.54V61.54ZM405.804 60.8782C410.64 60.5851 414.209 60.44 416.523 60.44V58.44C414.145 58.44 410.527 58.5883 405.683 58.8818L405.804 60.8782ZM415.523 59.44V59.55H417.523V59.44H415.523ZM411.793 140.3C417.044 140.3 421.82 138.889 426.095 136.064L424.992 134.396C421.054 136.998 416.663 138.3 411.793 138.3V140.3ZM426.105 136.057C430.369 133.164 433.707 129.21 436.123 124.226L434.324 123.354C432.047 128.05 428.931 131.723 424.982 134.403L426.105 136.057ZM436.126 124.221C438.544 119.158 439.743 113.508 439.743 107.29H437.743C437.743 113.245 436.596 118.595 434.321 123.359L436.126 124.221ZM439.743 107.29C439.743 99.9249 438.59 93.2016 436.267 87.1326L434.4 87.8474C436.623 93.6584 437.743 100.135 437.743 107.29H439.743ZM436.273 87.1464C434.014 80.9728 430.497 76.042 425.709 72.3946L424.497 73.9854C428.95 77.378 432.253 81.9805 434.394 87.8336L436.273 87.1464ZM425.717 72.4006C420.894 68.649 414.948 66.8 407.943 66.8V68.8C414.579 68.8 420.073 70.5443 424.49 73.9794L425.717 72.4006ZM407.943 66.8C403.709 66.8 399.844 67.9974 396.376 70.3865L397.511 72.0335C400.643 69.8759 404.111 68.8 407.943 68.8V66.8ZM395.943 71.21V136.77H397.943V71.21H395.943ZM396.583 137.703C400.905 139.371 405.983 140.19 411.793 140.19V138.19C406.164 138.19 401.342 137.396 397.304 135.837L396.583 137.703ZM410.793 139.19V139.3H412.793V139.19H410.793ZM505.221 147V148H505.839L506.116 147.447L505.221 147ZM469.581 147H468.581V148H469.581V147ZM469.581 142.49L468.953 141.712L468.581 142.013V142.49H469.581ZM479.921 134.13L480.55 134.908L480.921 134.607V134.13H479.921ZM479.921 69.67H480.921V68.934L480.219 68.7152L479.921 69.67ZM468.261 66.04L467.367 65.5928L466.841 66.6451L467.964 66.9948L468.261 66.04ZM471.011 60.54V59.54H470.393L470.117 60.0928L471.011 60.54ZM506.651 60.54H507.651V59.54H506.651V60.54ZM506.651 65.05L507.276 65.8309L507.651 65.5306V65.05H506.651ZM496.201 73.41L495.577 72.6291L495.201 72.9294V73.41H496.201ZM496.201 137.76H495.201V138.492L495.898 138.713L496.201 137.76ZM507.971 141.5L508.866 141.947L509.389 140.901L508.274 140.547L507.971 141.5ZM505.221 146H469.581V148H505.221V146ZM470.581 147V142.49H468.581V147H470.581ZM470.21 143.268L480.55 134.908L479.293 133.352L468.953 141.712L470.21 143.268ZM480.921 134.13V69.67H478.921V134.13H480.921ZM480.219 68.7152L468.558 65.0852L467.964 66.9948L479.624 70.6248L480.219 68.7152ZM469.156 66.4872L471.906 60.9872L470.117 60.0928L467.367 65.5928L469.156 66.4872ZM471.011 61.54H506.651V59.54H471.011V61.54ZM505.651 60.54V65.05H507.651V60.54H505.651ZM506.027 64.2691L495.577 72.6291L496.826 74.1909L507.276 65.8309L506.027 64.2691ZM495.201 73.41V137.76H497.201V73.41H495.201ZM495.898 138.713L507.668 142.453L508.274 140.547L496.504 136.807L495.898 138.713ZM507.077 141.053L504.327 146.553L506.116 147.447L508.866 141.947L507.077 141.053ZM591.82 84.96L592.172 85.8963L592.82 85.653V84.96H591.82ZM587.42 86.61L586.595 87.1742L587.037 87.8217L587.772 87.5463L587.42 86.61ZM573.891 66.81L574.716 66.2458L574.418 65.81H573.891V66.81ZM545.4 66.81V65.81H544.4V66.81H545.4ZM545.4 99.7H544.4V100.7H545.4V99.7ZM560.91 99.7V100.7H561.474L561.766 100.219L560.91 99.7ZM569.05 86.28V85.28H568.487L568.195 85.7614L569.05 86.28ZM573.56 86.28H574.56V85.28H573.56V86.28ZM573.56 117.19L574.008 118.084L574.56 117.808V117.19H573.56ZM568.06 119.94L567.165 120.384L567.61 121.283L568.508 120.834L568.06 119.94ZM561.13 105.97L562.026 105.526L561.751 104.97H561.13V105.97ZM545.4 105.97V104.97H544.4V105.97H545.4ZM545.4 137.1H544.4V137.883L545.161 138.071L545.4 137.1ZM563.22 141.5L564.115 141.947L564.674 140.829L563.46 140.529L563.22 141.5ZM560.47 147V148H561.089L561.365 147.447L560.47 147ZM518.78 147H517.78V148H518.78V147ZM518.78 142.49L518.162 141.704L517.78 142.005V142.49H518.78ZM529.12 134.35L529.739 135.136L530.12 134.835V134.35H529.12ZM529.12 69.78H530.12V69.0506L529.426 68.8278L529.12 69.78ZM517.46 66.04L516.566 65.5928L516.044 66.636L517.155 66.9922L517.46 66.04ZM520.21 60.54V59.54H519.592L519.316 60.0928L520.21 60.54ZM585.11 60.54V61.54H585.255L585.393 61.4991L585.11 60.54ZM591.82 58.56H592.82V57.2223L591.537 57.6009L591.82 58.56ZM591.469 84.0237L587.069 85.6737L587.772 87.5463L592.172 85.8963L591.469 84.0237ZM588.246 86.0458L574.716 66.2458L573.065 67.3742L586.595 87.1742L588.246 86.0458ZM573.891 65.81H545.4V67.81H573.891V65.81ZM544.4 66.81V99.7H546.4V66.81H544.4ZM545.4 100.7H560.91V98.7H545.4V100.7ZM561.766 100.219L569.905 86.7986L568.195 85.7614L560.055 99.1814L561.766 100.219ZM569.05 87.28H573.56V85.28H569.05V87.28ZM572.56 86.28V117.19H574.56V86.28H572.56ZM573.113 116.296L567.613 119.046L568.508 120.834L574.008 118.084L573.113 116.296ZM568.956 119.496L562.026 105.526L560.235 106.414L567.165 120.384L568.956 119.496ZM561.13 104.97H545.4V106.97H561.13V104.97ZM544.4 105.97V137.1H546.4V105.97H544.4ZM545.161 138.071L562.981 142.471L563.46 140.529L545.64 136.129L545.161 138.071ZM562.326 141.053L559.576 146.553L561.365 147.447L564.115 141.947L562.326 141.053ZM560.47 146H518.78V148H560.47V146ZM519.78 147V142.49H517.78V147H519.78ZM519.399 143.276L529.739 135.136L528.502 133.564L518.162 141.704L519.399 143.276ZM530.12 134.35V69.78H528.12V134.35H530.12ZM529.426 68.8278L517.766 65.0878L517.155 66.9922L528.815 70.7322L529.426 68.8278ZM518.355 66.4872L521.105 60.9872L519.316 60.0928L516.566 65.5928L518.355 66.4872ZM520.21 61.54H585.11V59.54H520.21V61.54ZM585.393 61.4991L592.104 59.5191L591.537 57.6009L584.827 59.5809L585.393 61.4991ZM590.82 58.56V84.96H592.82V58.56H590.82ZM651.148 137.87H650.148V138.61L650.856 138.826L651.148 137.87ZM663.028 141.5L663.923 141.947L664.452 140.889L663.32 140.544L663.028 141.5ZM660.278 147V148H660.896L661.173 147.447L660.278 147ZM624.858 147H623.858V148H624.858V147ZM624.858 142.49L624.24 141.704L623.858 142.005V142.49H624.858ZM635.198 134.35L635.817 135.136L636.198 134.835V134.35H635.198ZM635.198 116.75H636.198V116.463L636.047 116.22L635.198 116.75ZM606.488 70.77L607.336 70.2404L607.199 70.0198L606.971 69.8943L606.488 70.77ZM597.908 66.04L596.986 65.6528L596.638 66.4817L597.425 66.9157L597.908 66.04ZM600.218 60.54V59.54H599.554L599.296 60.1528L600.218 60.54ZM635.308 60.54H636.308V59.54H635.308V60.54ZM635.308 65.05L635.917 65.8433L636.308 65.5431V65.05H635.308ZM625.848 72.31L625.239 71.5167L624.519 72.0694L625 72.8395L625.848 72.31ZM646.858 105.97L646.01 106.499L646.833 107.818L647.692 106.523L646.858 105.97ZM668.528 73.3L669.362 73.8528L670.026 72.8509L668.92 72.3799L668.528 73.3ZM651.478 66.04L650.584 65.5928L650.108 66.5436L651.086 66.9601L651.478 66.04ZM654.228 60.54V59.54H653.61L653.334 60.0928L654.228 60.54ZM688.548 60.54H689.548V59.54H688.548V60.54ZM688.548 65.05L689.099 65.885L689.548 65.5886V65.05H688.548ZM678.868 71.43L678.318 70.595L678.146 70.7083L678.033 70.8803L678.868 71.43ZM651.148 113.56L650.313 113.01L650.148 113.261V113.56H651.148ZM650.856 138.826L662.736 142.456L663.32 140.544L651.44 136.914L650.856 138.826ZM662.134 141.053L659.384 146.553L661.173 147.447L663.923 141.947L662.134 141.053ZM660.278 146H624.858V148H660.278V146ZM625.858 147V142.49H623.858V147H625.858ZM625.477 143.276L635.817 135.136L634.58 133.564L624.24 141.704L625.477 143.276ZM636.198 134.35V116.75H634.198V134.35H636.198ZM636.047 116.22L607.336 70.2404L605.64 71.2996L634.35 117.28L636.047 116.22ZM606.971 69.8943L598.391 65.1643L597.425 66.9157L606.005 71.6457L606.971 69.8943ZM598.83 66.4272L601.14 60.9272L599.296 60.1528L596.986 65.6528L598.83 66.4272ZM600.218 61.54H635.308V59.54H600.218V61.54ZM634.308 60.54V65.05H636.308V60.54H634.308ZM634.699 64.2567L625.239 71.5167L626.457 73.1033L635.917 65.8433L634.699 64.2567ZM625 72.8395L646.01 106.499L647.707 105.44L626.697 71.7805L625 72.8395ZM647.692 106.523L669.362 73.8528L667.695 72.7472L646.025 105.417L647.692 106.523ZM668.92 72.3799L651.87 65.1199L651.086 66.9601L668.137 74.2201L668.92 72.3799ZM652.373 66.4872L655.123 60.9872L653.334 60.0928L650.584 65.5928L652.373 66.4872ZM654.228 61.54H688.548V59.54H654.228V61.54ZM687.548 60.54V65.05H689.548V60.54H687.548ZM687.998 64.215L678.318 70.595L679.419 72.265L689.099 65.885L687.998 64.215ZM678.033 70.8803L650.313 113.01L651.984 114.11L679.704 71.9797L678.033 70.8803ZM650.148 113.56V137.87H652.148V113.56H650.148Z" fill="black" fill-opacity="0.2" mask="url(#path-1-outside-1_0_1)"/>
<rect width="24.2487" height="24.2487" transform="matrix(-0.5 0.866025 -0.5 -0.866025 359.181 25.3531)" stroke="black" stroke-width="2"/>
<rect width="10.8" height="10.8" transform="matrix(-0.5 0.866025 -0.5 -0.866025 367.181 11.3531)" stroke="black" stroke-width="2"/>
<rect width="10.8" height="10.8" transform="matrix(-0.5 0.866025 -0.5 -0.866025 337.181 11.3531)" stroke="black" stroke-width="2"/>
<rect width="24.2487" height="24.2487" transform="matrix(0.999848 -0.0174524 -0.48481 0.87462 365.932 24.7762)" stroke="black" stroke-width="2"/>
<rect width="10.8024" height="10.8024" transform="matrix(0.999848 -0.0174524 -0.48481 0.87462 389.414 35.5367)" stroke="black" stroke-width="2"/>
<rect width="10.8024" height="10.8024" transform="matrix(0.999848 -0.0174524 -0.48481 0.87462 373.414 11.5367)" stroke="black" stroke-width="2"/>
<rect width="24.2487" height="24.2487" transform="matrix(-0.5 -0.866026 1 -4.48349e-08 316.057 46.3531)" stroke="black" stroke-width="2"/>
<rect width="10.8" height="10.8" transform="matrix(-0.5 -0.866026 1 -4.48349e-08 299.398 46.353)" stroke="black" stroke-width="2"/>
<rect width="10.8" height="10.8" transform="matrix(-0.5 -0.866026 1 -4.48349e-08 315.398 21.3531)" stroke="black" stroke-width="2"/>
<rect width="24.2487" height="24.2487" transform="matrix(0.5 -0.866025 0.5 0.866025 335.034 183)" stroke="black" stroke-width="2"/>
<rect width="10.8" height="10.8" transform="matrix(0.5 -0.866025 0.5 0.866025 327.034 197)" stroke="black" stroke-width="2"/>
<rect width="10.8" height="10.8" transform="matrix(0.5 -0.866025 0.5 0.866025 357.034 197)" stroke="black" stroke-width="2"/>
<rect width="24.2487" height="24.2487" transform="matrix(-0.999848 0.0174524 0.48481 -0.87462 328.283 183.577)" stroke="black" stroke-width="2"/>
<rect width="10.8024" height="10.8024" transform="matrix(-0.999848 0.0174524 0.48481 -0.87462 304.801 172.816)" stroke="black" stroke-width="2"/>
<rect width="10.8024" height="10.8024" transform="matrix(-0.999848 0.0174524 0.48481 -0.87462 320.801 196.816)" stroke="black" stroke-width="2"/>
<rect width="24.2487" height="24.2487" transform="matrix(0.5 0.866026 -1 4.48349e-08 378.158 162)" stroke="black" stroke-width="2"/>
<rect width="10.8" height="10.8" transform="matrix(0.5 0.866026 -1 4.48349e-08 394.818 162)" stroke="black" stroke-width="2"/>
<rect width="10.8" height="10.8" transform="matrix(0.5 0.866026 -1 4.48349e-08 378.818 187)" stroke="black" stroke-width="2"/>
</svg>
